<svg width="32" height="32" viewBox="0 0 32 32" fill="none" xmlns="http://www.w3.org/2000/svg">
<circle cx="16" cy="16" r="16" fill="#1D1D1D"/>
<g clip-path="url(#clip0_120_280)">
<path fill-rule="evenodd" clip-rule="evenodd" d="M15.9732 7C11.0112 7 7 11.125 7 16.2282C7 20.3074 9.57014 23.7604 13.1356 24.9826C13.5814 25.0744 13.7447 24.784 13.7447 24.5397C13.7447 24.3258 13.73 23.5924 13.73 22.8284C11.2339 23.3785 10.7141 21.7283 10.7141 21.7283C10.3129 20.6588 9.71855 20.3839 9.71855 20.3839C8.90157 19.8186 9.77806 19.8186 9.77806 19.8186C10.6843 19.8797 11.1598 20.7659 11.1598 20.7659C11.9619 22.1714 13.2544 21.7742 13.7744 21.5297C13.8486 20.9339 14.0865 20.5214 14.339 20.2922C12.3482 20.0783 10.2536 19.2839 10.2536 15.7392C10.2536 14.7308 10.6099 13.9058 11.1745 13.2642C11.0854 13.0351 10.7734 12.0876 11.2638 10.8196C11.2638 10.8196 12.0214 10.5751 13.7298 11.7668C14.4612 11.5648 15.2155 11.4621 15.9732 11.4612C16.7308 11.4612 17.5032 11.5683 18.2164 11.7668C19.9249 10.5751 20.6826 10.8196 20.6826 10.8196C21.173 12.0876 20.8607 13.0351 20.7717 13.2642C21.3511 13.9058 21.6928 14.7308 21.6928 15.7392C21.6928 19.2839 19.5982 20.0629 17.5924 20.2922C17.9194 20.5825 18.2015 21.1324 18.2015 22.0034C18.2015 23.2409 18.1868 24.2341 18.1868 24.5395C18.1868 24.784 18.3503 25.0744 18.7959 24.9827C22.3613 23.7603 24.9315 20.3074 24.9315 16.2282C24.9462 11.125 20.9202 7 15.9732 7Z" fill="white"/>
</g>
<defs>
<clipPath id="clip0_120_280">
<rect width="18" height="18" fill="white" transform="translate(7 7)"/>
</clipPath>
</defs>
</svg>
