<svg width="32" height="32" viewBox="0 0 32 32" fill="none" xmlns="http://www.w3.org/2000/svg">
<circle cx="16" cy="16" r="16" fill="#1D1D1D"/>
<path d="M7.79501 23.9808H11.2605C11.4439 23.9808 11.607 23.8788 11.7089 23.7361L21.2491 8.06004C21.3715 7.85619 21.2288 7.61157 20.9841 7.61157H17.7021C17.5391 7.61157 17.3964 7.69311 17.3148 7.83581L7.63193 23.6954C7.57078 23.8177 7.65232 23.9808 7.79501 23.9808Z" fill="white"/>
<path d="M19.7407 23.7361L24.2458 16.4994C24.3884 16.2752 24.2254 15.9898 23.9604 15.9898H20.6988C20.5764 15.9898 20.4541 16.051 20.393 16.1529L15.7656 23.5527C15.6433 23.7361 15.786 23.9807 16.0102 23.9807H19.333C19.496 23.9807 19.6591 23.8992 19.7407 23.7361Z" fill="white"/>
</svg>
